<?xml version="1.0" encoding="UTF-8" standalone="no"?>

<svg
   xmlns:dc="http://purl.org/dc/elements/1.1/"
   xmlns:cc="http://creativecommons.org/ns#"
   xmlns:rdf="http://www.w3.org/1999/02/22-rdf-syntax-ns#"
   xmlns:svg="http://www.w3.org/2000/svg"
   xmlns="http://www.w3.org/2000/svg"
   width="60.96mm"
   height="128.5mm"
   viewBox="0 0 60.96 128.5"
   version="1.2.5"
   id="svg8">
  <metadata
     id="metadata5">
    <rdf:RDF>
      <cc:Work
         rdf:about="">
        <dc:format>image/svg+xml</dc:format>
        <dc:type
           rdf:resource="http://purl.org/dc/dcmitype/StillImage" />
        <dc:title></dc:title>
      </cc:Work>
    </rdf:RDF>
  </metadata>
  <g id="layer1">
    <rect
       style="display:inline;opacity:1;vector-effect:none;fill:#e6e6e6;fill-opacity:1;fill-rule:evenodd;stroke:none;stroke-width:0.64935839;stroke-linecap:butt;stroke-linejoin:miter;stroke-miterlimit:4;stroke-dasharray:none;stroke-dashoffset:0;stroke-opacity:1;paint-order:normal"
       width="60.96"
       height="128.5"
       id="rect420" />
  </g><g id="noname" fill="none" stroke="red" stroke-width="1">
        <line x1="15.24" y1="57.825" x2="22.86" y2="64.25"/>
        <line x1="15.24" y1="70.675" x2="22.86" y2="64.25"/>
        <line x1="22.86" y1="64.25" x2="53.34" y2="64.25"/>
        <line x1="30.48" y1="70.675" x2="30.48" y2="32.125"/>
        <line x1="45.72" y1="32.125" x2="45.72" y2="70.675"/>
        <line x1="45.72" y1="83.525" x2="15.24" y2="83.525"/>
        <line x1="7.62" y1="89.95" x2="7.62" y2="115.65"/>
        <line x1="7.62" y1="115.65" x2="53.34" y2="115.65"/>
        <line x1="53.34" y1="115.65" x2="53.34" y2="89.95"/>
        <line x1="53.34" y1="89.95" x2="7.62" y2="89.95"/>
        <line x1="7.62" y1="102.8" x2="53.34" y2="102.8"/>
        <line x1="22.86" y1="89.95" x2="22.86" y2="102.8"/>
        <line x1="38.1" y1="102.8" x2="38.1" y2="115.65"/>
        <line x1="7.62" y1="25.7" x2="22.86" y2="25.7"/>
        <line x1="22.86" y1="25.7" x2="22.86" y2="12.85"/>
        <line x1="22.86" y1="12.85" x2="7.62" y2="12.85"/>
        <line x1="7.62" y1="12.85" x2="7.62" y2="25.7"/>
        <line x1="22.86" y1="19.275" x2="45.72" y2="19.275"/>
        <line x1="15.24" y1="25.7" x2="15.24" y2="44.975"/>
        <line x1="22.86" y1="51.4" x2="22.86" y2="77.1"/>
        <line x1="22.86" y1="77.1" x2="53.34" y2="77.1"/>
        <line x1="53.34" y1="77.1" x2="53.34" y2="51.4"/>
        <line x1="53.34" y1="51.4" x2="22.86" y2="51.4"/>
    </g>
</svg>
