<?xml version="1.0" encoding="UTF-8" standalone="no"?>

<svg
   xmlns:dc="http://purl.org/dc/elements/1.1/"
   xmlns:cc="http://creativecommons.org/ns#"
   xmlns:rdf="http://www.w3.org/1999/02/22-rdf-syntax-ns#"
   xmlns:svg="http://www.w3.org/2000/svg"
   xmlns="http://www.w3.org/2000/svg"
   width="106.68mm"
   height="128.5mm"
   viewBox="0 0 106.68 128.5"
   version="1.3.5"
   id="svg8">
  <metadata
     id="metadata5">
    <rdf:RDF>
      <cc:Work
         rdf:about="">
        <dc:format>image/svg+xml</dc:format>
        <dc:type
           rdf:resource="http://purl.org/dc/dcmitype/StillImage" />
        <dc:title></dc:title>
      </cc:Work>
    </rdf:RDF>
  </metadata>
  <g id="layer1"> 
    <rect
       style="display:inline;opacity:1;vector-effect:none;fill:#e6e6e6;fill-opacity:1;fill-rule:evenodd;stroke:none;stroke-width:0.64935839;stroke-linecap:butt;stroke-linejoin:miter;stroke-miterlimit:4;stroke-dasharray:none;stroke-dashoffset:0;stroke-opacity:1;paint-order:normal"
       width="106.68"
       height="128.5"
       id="rect420" />
  </g>
    <g id="4" fill="none" stroke="blue" stroke-width="1">
        <line x1="15.24" y1="64.25" x2="91.44" y2="64.25"/>
        <line x1="91.44" y1="64.25" x2="91.44" y2="12.85"/>
        <line x1="91.44" y1="12.85" x2="15.24" y2="12.85"/>
        <line x1="15.24" y1="12.85" x2="15.24" y2="64.25"/>
        <line x1="15.24" y1="38.55" x2="91.44" y2="38.55"/>
        <line x1="83.82" y1="57.825" x2="99.06" y2="57.825"/>
        <line x1="7.62" y1="25.7" x2="22.86" y2="25.7"/>
        <line x1="7.62" y1="51.4" x2="22.86" y2="51.4"/>
        <line x1="83.82" y1="32.125" x2="99.06" y2="32.125"/>
    </g>
    <g id="5" fill="none" stroke="green" stroke-width="1">
        <line x1="7.62" y1="115.65" x2="99.06" y2="115.65"/>
        <line x1="99.06" y1="115.65" x2="99.06" y2="64.25"/>
        <line x1="99.06" y1="64.25" x2="7.62" y2="64.25"/>
        <line x1="7.62" y1="64.25" x2="7.62" y2="115.65"/>
        <line x1="38.1" y1="64.25" x2="38.1" y2="115.65"/>
        <line x1="68.58" y1="64.25" x2="68.58" y2="115.65"/>
        <line x1="38.1" y1="102.8" x2="22.86" y2="102.8"/>
        <line x1="22.86" y1="102.8" x2="22.86" y2="115.65"/>
        <line x1="68.58" y1="102.8" x2="53.34" y2="102.8"/>
        <line x1="53.34" y1="102.8" x2="53.34" y2="115.65"/>
        <line x1="99.06" y1="102.8" x2="83.82" y2="102.8"/>
        <line x1="83.82" y1="102.8" x2="83.82" y2="115.65"/>
    </g>
    <g id="8" fill="none" stroke="red" stroke-width="1">
        <line x1="7.62" y1="89.95" x2="99.06" y2="89.95"/>
    </g>
</svg>
